<svg width="25" height="28" viewBox="0 0 25 28" fill="none" xmlns="http://www.w3.org/2000/svg">
<path d="M21.63 0H2.87014C1.28807 0 0 1.28797 0 2.88402V21.812C0 23.4081 1.28797 24.696 2.87004 24.696H18.7461L18.004 22.106L19.796 23.772L21.49 25.34L24.5 28V2.88402C24.5 1.28797 23.2121 0 21.63 0ZM16.226 18.2841C16.226 18.2841 15.722 17.682 15.302 17.15C17.1361 16.632 17.836 15.484 17.836 15.484C17.262 15.8621 16.716 16.1281 16.226 16.3099C15.526 16.604 14.854 16.7999 14.196 16.912C12.852 17.164 11.62 17.094 10.57 16.898C9.77197 16.744 9.08597 16.52 8.51204 16.2961C8.19 16.17 7.84001 16.016 7.48993 15.82C7.44801 15.792 7.406 15.778 7.36398 15.75C7.33604 15.736 7.32197 15.722 7.308 15.7081C7.05601 15.568 6.916 15.47 6.916 15.47C6.916 15.47 7.58802 16.5901 9.366 17.122C8.94605 17.6541 8.42801 18.284 8.42801 18.284C5.33393 18.186 4.15802 16.156 4.15802 16.156C4.15802 11.648 6.17401 7.994 6.17401 7.994C8.19 6.48198 10.108 6.524 10.108 6.524L10.248 6.69205C7.72804 7.41987 6.56601 8.52601 6.56601 8.52601C6.56601 8.52601 6.87398 8.35805 7.39193 8.12004C8.88997 7.46198 10.08 7.28005 10.57 7.23804C10.654 7.22397 10.724 7.21 10.8081 7.21C11.7462 7.08778 12.6957 7.0784 13.6361 7.18205C14.966 7.33604 16.3941 7.72804 17.85 8.52601C17.85 8.52601 16.7441 7.47605 14.364 6.74804L14.56 6.52409C14.56 6.52409 16.478 6.48198 18.494 7.99409C18.494 7.99409 20.5101 11.648 20.5101 16.156C20.5101 16.156 19.32 18.1861 16.226 18.2841ZM9.71599 11.746C8.91801 11.746 8.28809 12.446 8.28809 13.3C8.28809 14.154 8.93198 14.854 9.71599 14.854C10.5141 14.854 11.144 14.154 11.144 13.3C11.158 12.446 10.514 11.746 9.71599 11.746ZM14.8261 11.746C14.028 11.746 13.398 12.446 13.398 13.3C13.398 14.154 14.0421 14.854 14.8261 14.854C15.624 14.854 16.254 14.154 16.254 13.3C16.254 12.446 15.624 11.746 14.8261 11.746Z" fill="#7289DA"/>
</svg>
