<svg width="30" height="22" viewBox="0 0 30 22" fill="none" xmlns="http://www.w3.org/2000/svg">
<g clip-path="url(#clip0)">
<path d="M6.63214 21.8917V10.617L3.13551 7.41811L0 5.64294V19.902C0 21.0029 0.891969 21.8917 1.98969 21.8917H6.63214Z" fill="#4285F4"/>
<path d="M22.5493 21.8917H27.1918C28.2928 21.8917 29.1815 20.9996 29.1815 19.902V5.64307L25.63 7.6763L22.5493 10.617V21.8917Z" fill="#34A853"/>
<path d="M6.63204 10.617L6.15625 6.2116L6.63204 1.99524L14.5906 7.96419L22.5491 1.99524L23.0814 5.98396L22.5491 10.617L14.5906 16.5859L6.63204 10.617Z" fill="#EA4335"/>
<path d="M22.5493 1.99524V10.617L29.1815 5.64291V2.99003C29.1815 0.529561 26.3728 -0.873082 24.4064 0.602514L22.5493 1.99524Z" fill="#FBBC04"/>
<path d="M0 5.64284L3.05025 7.93061L6.63214 10.6169V1.99517L4.77503 0.602444C2.80528 -0.873266 0 0.529491 0 2.98984V5.64272V5.64284Z" fill="#C5221F"/>
</g>
<defs>
<clipPath id="clip0">
<rect width="29.1813" height="22" fill="white"/>
</clipPath>
</defs>
</svg>
