<svg width="157" height="54" viewBox="0 0 157 54" fill="none" xmlns="http://www.w3.org/2000/svg">
<path d="M21.35 32.988L17.478 22.406C17.2873 21.9367 17.0893 21.3793 16.884 20.734C16.6787 20.0887 16.4733 19.392 16.268 18.644C16.0773 19.392 15.8793 20.096 15.674 20.756C15.4687 21.4013 15.2707 21.966 15.08 22.45L11.23 32.988H21.35ZM31.8 45H27.224C26.7107 45 26.2927 44.8753 25.97 44.626C25.6473 44.362 25.4053 44.0393 25.244 43.658L22.868 37.168H9.69L7.314 43.658C7.19667 43.9953 6.96933 44.3033 6.632 44.582C6.29467 44.8607 5.87667 45 5.378 45H0.758L13.276 13.188H19.304L31.8 45ZM39.3178 26.344C40.0218 24.9947 40.8578 23.9387 41.8258 23.176C42.7938 22.3987 43.9378 22.01 45.2578 22.01C46.2991 22.01 47.1351 22.2373 47.7658 22.692L47.4138 26.762C47.3405 27.026 47.2305 27.2167 47.0838 27.334C46.9518 27.4367 46.7685 27.488 46.5338 27.488C46.3138 27.488 45.9838 27.4513 45.5438 27.378C45.1185 27.3047 44.7005 27.268 44.2898 27.268C43.6885 27.268 43.1531 27.356 42.6838 27.532C42.2145 27.708 41.7891 27.9647 41.4078 28.302C41.0411 28.6247 40.7111 29.0207 40.4178 29.49C40.1391 29.9593 39.8751 30.4947 39.6258 31.096V45H34.1918V22.428H37.3818C37.9391 22.428 38.3278 22.5307 38.5478 22.736C38.7678 22.9267 38.9145 23.2787 38.9878 23.792L39.3178 26.344ZM64.5033 31.118C64.5033 30.414 64.4007 29.754 64.1953 29.138C64.0047 28.5073 63.7113 27.9573 63.3153 27.488C62.9193 27.0187 62.4133 26.652 61.7973 26.388C61.196 26.1093 60.492 25.97 59.6853 25.97C58.116 25.97 56.8767 26.4173 55.9673 27.312C55.0727 28.2067 54.5007 29.4753 54.2513 31.118H64.5033ZM54.1413 34.396C54.2293 35.5547 54.4347 36.5593 54.7573 37.41C55.08 38.246 55.5053 38.9427 56.0333 39.5C56.5613 40.0427 57.1847 40.4533 57.9033 40.732C58.6367 40.996 59.4433 41.128 60.3233 41.128C61.2033 41.128 61.9587 41.0253 62.5893 40.82C63.2347 40.6147 63.792 40.3873 64.2613 40.138C64.7453 39.8887 65.1633 39.6613 65.5153 39.456C65.882 39.2507 66.234 39.148 66.5713 39.148C67.026 39.148 67.3633 39.3167 67.5833 39.654L69.1453 41.634C68.544 42.338 67.8693 42.932 67.1213 43.416C66.3733 43.8853 65.5887 44.2667 64.7673 44.56C63.9607 44.8387 63.132 45.0367 62.2813 45.154C61.4453 45.2713 60.6313 45.33 59.8393 45.33C58.27 45.33 56.8107 45.0733 55.4613 44.56C54.112 44.032 52.9387 43.262 51.9413 42.25C50.944 41.2233 50.1593 39.962 49.5873 38.466C49.0153 36.9553 48.7293 35.21 48.7293 33.23C48.7293 31.69 48.9787 30.2453 49.4773 28.896C49.976 27.532 50.6873 26.3513 51.6113 25.354C52.55 24.342 53.6867 23.5427 55.0213 22.956C56.3707 22.3693 57.8887 22.076 59.5753 22.076C60.998 22.076 62.3107 22.3033 63.5133 22.758C64.716 23.2127 65.75 23.88 66.6153 24.76C67.4807 25.6253 68.1553 26.696 68.6393 27.972C69.138 29.2333 69.3873 30.678 69.3873 32.306C69.3873 33.1273 69.2993 33.6847 69.1233 33.978C68.9473 34.2567 68.61 34.396 68.1113 34.396H54.1413ZM85.3893 35.364C83.8199 35.4373 82.4999 35.5767 81.4293 35.782C80.3586 35.9727 79.5006 36.222 78.8553 36.53C78.2099 36.838 77.7479 37.1973 77.4693 37.608C77.1906 38.0187 77.0513 38.466 77.0513 38.95C77.0513 39.9033 77.3299 40.5853 77.8873 40.996C78.4593 41.4067 79.1999 41.612 80.1093 41.612C81.2239 41.612 82.1846 41.414 82.9913 41.018C83.8126 40.6073 84.6119 39.9913 85.3893 39.17V35.364ZM72.9373 25.574C75.5333 23.198 78.6573 22.01 82.3093 22.01C83.6293 22.01 84.8099 22.23 85.8513 22.67C86.8926 23.0953 87.7726 23.6967 88.4913 24.474C89.2099 25.2367 89.7526 26.1533 90.1193 27.224C90.5006 28.2947 90.6913 29.468 90.6913 30.744V45H88.2273C87.7139 45 87.3179 44.9267 87.0393 44.78C86.7606 44.6187 86.5406 44.3033 86.3793 43.834L85.8953 42.206C85.3233 42.7193 84.7659 43.174 84.2233 43.57C83.6806 43.9513 83.1159 44.274 82.5293 44.538C81.9426 44.802 81.3119 45 80.6373 45.132C79.9773 45.2787 79.2439 45.352 78.4373 45.352C77.4839 45.352 76.6039 45.2273 75.7973 44.978C74.9906 44.714 74.2939 44.3253 73.7073 43.812C73.1206 43.2987 72.6659 42.6607 72.3433 41.898C72.0206 41.1353 71.8593 40.248 71.8593 39.236C71.8593 38.664 71.9546 38.0993 72.1453 37.542C72.3359 36.97 72.6439 36.4273 73.0693 35.914C73.5093 35.4007 74.0739 34.9167 74.7633 34.462C75.4526 34.0073 76.2959 33.6113 77.2933 33.274C78.3053 32.9367 79.4786 32.6653 80.8133 32.46C82.1479 32.24 83.6733 32.108 85.3893 32.064V30.744C85.3893 29.2333 85.0666 28.1187 84.4213 27.4C83.7759 26.6667 82.8446 26.3 81.6273 26.3C80.7473 26.3 80.0139 26.4027 79.4273 26.608C78.8553 26.8133 78.3493 27.048 77.9093 27.312C77.4693 27.5613 77.0659 27.7887 76.6993 27.994C76.3473 28.1993 75.9513 28.302 75.5113 28.302C75.1299 28.302 74.8073 28.2067 74.5433 28.016C74.2793 27.8107 74.0666 27.576 73.9053 27.312L72.9373 25.574ZM154.817 29.05V41.92C153.203 43.108 151.48 43.9807 149.647 44.538C147.828 45.0807 145.877 45.352 143.795 45.352C141.199 45.352 138.845 44.9487 136.733 44.142C134.635 43.3353 132.839 42.2133 131.343 40.776C129.861 39.3387 128.717 37.6227 127.911 35.628C127.104 33.6333 126.701 31.4553 126.701 29.094C126.701 26.7033 127.089 24.5107 127.867 22.516C128.644 20.5213 129.744 18.8053 131.167 17.368C132.604 15.9307 134.342 14.816 136.381 14.024C138.419 13.232 140.707 12.836 143.245 12.836C144.535 12.836 145.738 12.9387 146.853 13.144C147.982 13.3493 149.023 13.6353 149.977 14.002C150.945 14.354 151.825 14.7867 152.617 15.3C153.409 15.8133 154.135 16.378 154.795 16.994L153.101 19.678C152.837 20.1033 152.492 20.3673 152.067 20.47C151.641 20.558 151.179 20.448 150.681 20.14C150.197 19.8613 149.713 19.5827 149.229 19.304C148.745 19.0253 148.202 18.7833 147.601 18.578C147.014 18.3727 146.347 18.204 145.599 18.072C144.865 17.94 144.015 17.874 143.047 17.874C141.477 17.874 140.055 18.138 138.779 18.666C137.517 19.194 136.439 19.9493 135.545 20.932C134.65 21.9147 133.961 23.0953 133.477 24.474C132.993 25.8527 132.751 27.3927 132.751 29.094C132.751 30.9127 133.007 32.5407 133.521 33.978C134.049 35.4007 134.782 36.6107 135.721 37.608C136.674 38.5907 137.818 39.346 139.153 39.874C140.487 40.3873 141.976 40.644 143.619 40.644C144.792 40.644 145.841 40.5193 146.765 40.27C147.689 40.0207 148.591 39.6833 149.471 39.258V33.494H145.467C145.085 33.494 144.785 33.3913 144.565 33.186C144.359 32.966 144.257 32.702 144.257 32.394V29.05H154.817Z" fill="#FAFAFA"/>
<path d="M122.891 29.05V41.92C121.278 43.108 119.554 43.9807 117.721 44.538C115.902 45.0807 113.952 45.352 111.869 45.352C109.273 45.352 106.919 44.9487 104.807 44.142C102.71 43.3353 100.913 42.2133 99.417 40.776C97.9357 39.3387 96.7917 37.6227 95.985 35.628C95.1783 33.6333 94.775 31.4553 94.775 29.094C94.775 26.7033 95.1637 24.5107 95.941 22.516C96.7183 20.5213 97.8183 18.8053 99.241 17.368C100.678 15.9307 102.416 14.816 104.455 14.024C106.494 13.232 108.782 12.836 111.319 12.836C112.61 12.836 113.812 12.9387 114.927 13.144C116.056 13.3493 117.098 13.6353 118.051 14.002C119.019 14.354 119.899 14.7867 120.691 15.3C121.483 15.8133 122.209 16.378 122.869 16.994L121.175 19.678C120.911 20.1033 120.566 20.3673 120.141 20.47C119.716 20.558 119.254 20.448 118.755 20.14C118.271 19.8613 117.787 19.5827 117.303 19.304C116.819 19.0253 116.276 18.7833 115.675 18.578C115.088 18.3727 114.421 18.204 113.673 18.072C112.94 17.94 112.089 17.874 111.121 17.874C109.552 17.874 108.129 18.138 106.853 18.666C105.592 19.194 104.514 19.9493 103.619 20.932C102.724 21.9147 102.035 23.0953 101.551 24.474C101.067 25.8527 100.825 27.3927 100.825 29.094C100.825 30.9127 101.082 32.5407 101.595 33.978C102.123 35.4007 102.856 36.6107 103.795 37.608C104.748 38.5907 105.892 39.346 107.227 39.874C108.562 40.3873 110.05 40.644 111.693 40.644C112.866 40.644 113.915 40.5193 114.839 40.27C115.763 40.0207 116.665 39.6833 117.545 39.258V33.494H113.541C113.16 33.494 112.859 33.3913 112.639 33.186C112.434 32.966 112.331 32.702 112.331 32.394V29.05H122.891Z" fill="#66FCF1"/>
<path d="M66.4453 14.1281C66.4453 10.6687 72.4667 8.38594 72.4667 4.6125C72.4667 2.40469 70.5188 0.4875 70.2266 0.375C70.2495 0.529687 70.2609 0.689062 70.2609 0.84375C70.2609 5.16094 61.8333 8.05781 61.8333 13.4344C61.8333 15.7687 63.6781 17.1469 65.6432 18.5109C69.3729 20.7 70.1177 21.8578 70.1177 22.5703C70.1177 23.0437 69.8427 23.3672 69.8427 23.6156C70.5932 22.8328 70.8396 22.1203 70.8453 21.4406C70.8453 20.0531 69.6021 18.8016 68.313 17.3859C67.3964 16.3406 66.4453 15.3891 66.4453 14.1281ZM78.2073 12.3C77.5141 9.16875 73.7386 6.46875 72.7818 6.16406L73.0109 6.50156C73.1484 6.74062 73.2057 7.0125 73.2057 7.30312C73.2057 9.39844 70.1005 12.5156 69.963 12.7734C69.837 13.0125 69.7797 13.2656 69.7797 13.5141C69.7797 14.4562 70.6505 15.4875 70.8052 15.4875C70.9427 15.4875 74.0479 12.8906 74.1339 11.3766C74.5005 11.925 74.6552 12.4359 74.6552 12.9422C74.6552 14.8734 72.2604 17.4844 72.2604 17.4844C72.2604 18.0281 74.088 19.9781 74.2943 19.9781C74.3516 19.9781 74.4203 19.9125 74.4776 19.8656C76.649 18.0234 78.3333 15.8812 78.3333 13.4531C78.3333 13.0781 78.2932 12.6937 78.2073 12.3Z" fill="url(#paint0_linear)"/>
<defs>
<linearGradient id="paint0_linear" x1="70.0833" y1="0.375" x2="70.0833" y2="23.6156" gradientUnits="userSpaceOnUse">
<stop offset="0.484466" stop-color="#ED291C"/>
<stop offset="1" stop-color="#EF9038"/>
</linearGradient>
</defs>
</svg>
