<svg width="32" height="22" viewBox="0 0 32 22" fill="none" xmlns="http://www.w3.org/2000/svg">
<g clip-path="url(#clip0)">
<path d="M30.5979 3.43139C30.4184 2.76816 30.0683 2.16351 29.5825 1.67766C29.0967 1.1918 28.492 0.841697 27.8288 0.6622C25.4007 0 15.6286 0 15.6286 0C15.6286 0 5.85594 0.0200443 3.42787 0.682244C2.76463 0.861752 2.15999 1.21188 1.67415 1.69775C1.18832 2.18363 0.838251 2.7883 0.658801 3.45156C-0.075632 7.76576 -0.360532 14.3396 0.678968 18.4812C0.858436 19.1445 1.20852 19.7491 1.69435 20.235C2.18018 20.7208 2.78481 21.0709 3.44804 21.2504C5.8761 21.9126 15.6485 21.9126 15.6485 21.9126C15.6485 21.9126 25.4208 21.9126 27.8487 21.2504C28.512 21.0709 29.1166 20.7208 29.6025 20.235C30.0883 19.7491 30.4384 19.1445 30.6179 18.4812C31.3926 14.1609 31.6313 7.5911 30.5979 3.43139Z" fill="#FF0000"/>
<path d="M12.5176 15.6518L20.6245 10.9563L12.5177 6.26074L12.5176 15.6518Z" fill="white"/>
</g>
<defs>
<clipPath id="clip0">
<rect width="31.2889" height="22" fill="white"/>
</clipPath>
</defs>
</svg>
